<?xml version="1.0" encoding="UTF-8" standalone="no"?><!DOCTYPE svg PUBLIC "-//W3C//DTD SVG 1.1//EN" "http://www.w3.org/Graphics/SVG/1.1/DTD/svg11.dtd"><svg width="100%" height="100%" viewBox="0 0 512 200" version="1.1" xmlns="http://www.w3.org/2000/svg" xmlns:xlink="http://www.w3.org/1999/xlink" xml:space="preserve" xmlns:serif="http://www.serif.com/" style="fill-rule:evenodd;clip-rule:evenodd;stroke-linejoin:round;stroke-miterlimit:2;"><g id="Logo-5" serif:id="Logo 5"><rect x="0" y="0" width="512" height="200" style="fill:none;"/><path id="clouds2" d="M71.876,136.523c6.848,0.935 12.111,6.786 12.111,13.869c0,7.783 -6.282,13.998 -14.037,13.998l-44.72,0c-7.766,0 -14.037,-6.266 -14.037,-13.998c0,-6.808 4.809,-12.419 11.198,-13.712l0,-0.286c0,-9.277 7.519,-16.797 16.797,-16.797c5.191,0 9.832,2.352 12.912,6.053c1.248,-0.297 2.547,-0.454 3.886,-0.454c7.362,0 13.617,4.737 15.884,11.327l0.006,0Zm4.014,-4.821c7.055,2.234 12.419,8.377 13.5,15.891l33.796,0c15.459,0 27.99,-12.565 27.99,-27.996c0,-11.489 -6.898,-21.361 -16.803,-25.672c-0.257,-16.786 -13.942,-30.319 -30.789,-30.319c-5.93,0 -11.462,1.674 -16.159,4.574c-7.145,-9.574 -18.567,-15.773 -31.434,-15.773c-21.646,0 -39.194,17.548 -39.194,39.194c0,0.773 0.023,1.54 0.068,2.307c-9.922,4.311 -16.865,14.211 -16.865,25.689c0,7.973 3.326,15.168 8.667,20.269c2.038,-3.192 4.978,-5.762 8.461,-7.335c1.831,-10.526 11.013,-18.528 22.066,-18.528c5.722,0 10.946,2.145 14.905,5.678c0.627,-0.05 1.254,-0.078 1.892,-0.078c8.662,0 16.17,4.916 19.899,12.105l0,-0.006Zm60.868,-52.29c5.168,-2.055 8.819,-7.072 8.819,-13.007c0,-7.083 -5.257,-12.934 -12.111,-13.869c-2.267,-6.59 -8.527,-11.327 -15.885,-11.327c-1.338,0 -2.637,0.157 -3.885,0.454c-3.08,-3.696 -7.721,-6.053 -12.912,-6.053c-9.278,0 -16.797,7.52 -16.797,16.797l0,0.286c-1.299,0.263 -2.525,0.706 -3.668,1.293c3.125,2.022 5.975,4.424 8.5,7.139c4.513,-2.004 9.507,-3.118 14.765,-3.118c14.759,0 27.463,8.785 33.174,21.405Z" style="fill:#262626;fill-rule:nonzero;"/><g><path d="M213.967,131.922c16.218,0 24.459,-9.816 28.07,-18.059l-16.111,-7.415c-1.576,4.82 -6.397,8.991 -11.959,8.991c-8.992,0 -15.018,-6.859 -15.018,-15.48c0,-8.621 6.026,-15.48 15.018,-15.48c5.562,0 10.383,4.171 11.959,8.991l16.111,-7.508c-3.704,-8.521 -11.852,-17.966 -28.07,-17.966c-19.37,0 -34.002,12.871 -34.002,31.963c0,18.999 14.632,31.963 34.002,31.963Z" style="fill:none;fill-rule:nonzero;stroke:#262626;stroke-width:4px;"/><rect x="247.516" y="69.016" width="16.668" height="61.794" style="fill:none;fill-rule:nonzero;stroke:#262626;stroke-width:4px;"/><path d="M295.509,131.922c15.938,0 25.198,-11.018 25.198,-23.531c0,-12.512 -9.26,-23.437 -25.198,-23.437c-15.846,0 -25.106,10.925 -25.106,23.437c0,12.513 9.26,23.531 25.106,23.531Zm0,-14.722c-5.1,0 -7.975,-3.802 -7.975,-8.809c0,-4.914 2.875,-8.716 7.975,-8.716c5.193,0 8.067,3.802 8.067,8.716c0,5.007 -2.874,8.809 -8.067,8.809Z" style="fill:none;fill-rule:nonzero;stroke:#262626;stroke-width:4px;"/><path d="M373.802,130.81l0,-44.744l-16.667,0l0,27.606c-1.391,1.582 -3.339,3.528 -7.048,3.528c-4.081,0 -6.492,-1.761 -6.492,-6.301l0,-24.833l-16.668,0l0,31.967c0,7.685 4.445,13.889 14.816,13.889c7.88,0 12.795,-3.241 15.392,-6.111l0,4.999l16.667,0Z" style="fill:none;fill-rule:nonzero;stroke:#262626;stroke-width:4px;"/><path d="M429.03,130.81l0,-61.794l-16.668,0l0,21.771c-3.524,-4.259 -8.068,-5.833 -12.611,-5.833c-11.024,0 -19.728,8.61 -19.728,23.431c0,15.389 8.89,23.537 19.728,23.537c4.543,0 8.809,-1.574 12.611,-5.833l0,4.721l16.668,0Zm-23.623,-13.61c-4.544,0 -8.346,-3.245 -8.346,-8.809c0,-5.563 3.802,-8.716 8.346,-8.716c2.226,0 5.379,1.02 6.955,2.967l0,11.498c-1.576,1.947 -4.729,3.06 -6.955,3.06Z" style="fill:#262626;fill-rule:nonzero;"/><path d="M446.641,82.811c5.186,0 9.353,-4.167 9.353,-9.353c0,-5.186 -4.167,-9.353 -9.353,-9.353c-5.186,0 -9.353,4.167 -9.353,9.353c0,5.186 4.167,9.353 9.353,9.353Zm8.334,47.999l0,-44.744l-16.668,0l0,44.744l16.668,0Z" style="fill:#262626;fill-rule:nonzero;"/><path d="M508.997,130.81l-14.73,-22.975l13.711,-21.769l-18.25,0l-6.022,10.468l-6.022,-10.468l-18.25,0l13.711,21.769l-14.637,22.975l18.157,0l7.134,-11.858l6.948,11.858l18.25,0Z" style="fill:#262626;fill-rule:nonzero;"/></g></g></svg>