<?xml version="1.0" encoding="UTF-8" standalone="no"?><!DOCTYPE svg PUBLIC "-//W3C//DTD SVG 1.1//EN" "http://www.w3.org/Graphics/SVG/1.1/DTD/svg11.dtd"><svg width="100%" height="100%" viewBox="0 0 512 200" version="1.1" xmlns="http://www.w3.org/2000/svg" xmlns:xlink="http://www.w3.org/1999/xlink" xml:space="preserve" xmlns:serif="http://www.serif.com/" style="fill-rule:evenodd;clip-rule:evenodd;stroke-linejoin:round;stroke-miterlimit:2;"><g id="Logo-3" serif:id="Logo 3"><rect x="0" y="0" width="512" height="200" style="fill:none;"/><g><path d="M56.938,61.988l-8.443,16.454c-4.33,-3.609 -9.021,-5.413 -14.072,-5.413c-2.237,0 -4.312,0.614 -6.224,1.841c-1.913,1.226 -2.869,2.886 -2.869,4.979c0,1.443 0.595,2.742 1.786,3.897c1.191,1.154 2.309,1.948 3.356,2.381c1.046,0.433 2.471,0.938 4.275,1.516l5.413,1.623c6.35,1.877 11.294,4.529 14.83,7.957c3.536,3.427 5.304,8.208 5.304,14.342c0,9.887 -2.815,17.212 -8.443,21.975c-6.062,5.123 -13.784,7.685 -23.165,7.685c-10.248,0 -19.81,-3.103 -28.686,-9.309l9.093,-17.103c6.423,5.629 12.701,8.443 18.835,8.443c2.742,0 5.142,-0.703 7.198,-2.111c2.057,-1.407 3.085,-3.446 3.085,-6.116c0,-3.68 -3.427,-6.531 -10.283,-8.551c-0.217,-0.072 -1.083,-0.325 -2.598,-0.758c-3.897,-1.082 -6.964,-2.093 -9.201,-3.031c-2.237,-0.938 -4.474,-2.255 -6.711,-3.951c-2.237,-1.696 -3.825,-3.843 -4.763,-6.441c-0.938,-2.598 -1.407,-5.809 -1.407,-9.634c0,-8.226 2.634,-14.848 7.902,-19.863c5.268,-5.015 12.015,-7.523 20.242,-7.523c4.113,0 8.497,0.613 13.152,1.84c4.655,1.227 8.786,2.851 12.394,4.871Z" style="fill-rule:nonzero;"/><path d="M70.361,139.06l0,-81.618l32.474,0c9.165,0 16.4,2.219 21.704,6.657c5.304,4.438 7.956,11.167 7.956,20.188c0,18.474 -9.634,27.711 -28.902,27.711l-12.016,0l0,27.062l-21.216,0Zm21.216,-64.515l0,20.35l3.572,0c2.021,0 3.555,-0.018 4.601,-0.054c1.046,-0.036 2.381,-0.234 4.005,-0.595c1.624,-0.361 2.833,-0.866 3.626,-1.516c0.794,-0.649 1.498,-1.623 2.111,-2.922c0.614,-1.299 0.92,-2.923 0.92,-4.871c0,-2.021 -0.288,-3.699 -0.866,-5.034c-0.577,-1.335 -1.263,-2.363 -2.056,-3.085c-0.794,-0.722 -1.967,-1.245 -3.518,-1.57c-1.552,-0.324 -2.887,-0.523 -4.006,-0.595c-1.118,-0.072 -2.724,-0.108 -4.817,-0.108l-3.572,0Z" style="fill-rule:nonzero;"/><path id="volleyball2" d="M225.963,90.579c-12.353,-11.767 -29.696,-17.99 -47.728,-15.655c1.045,6.219 3.149,12.362 6.384,18.175c15.691,0.241 29.92,6.491 40.498,16.547c-0.059,0.213 0.302,-1.125 0.502,-2.025c0.67,-3.015 1.024,-6.154 1.024,-9.372c0,-1.65 -0.093,-3.279 -0.275,-4.881c-0.199,-1.757 -0.553,-3.59 -0.409,-2.789l0.004,0Zm-1.554,-6.053c-12.72,-10.197 -29.387,-15.35 -46.648,-13.105c-0.55,-5.305 -0.344,-10.63 0.581,-15.818c-0.175,0.021 0.619,-0.075 1.196,-0.13c1.362,-0.131 2.744,-0.196 4.139,-0.196c18.018,0 33.443,11.087 39.831,26.811c0.495,1.221 1.048,2.871 0.904,2.438l-0.003,0Zm-0.471,28.774c-4.906,-4.944 -10.716,-8.986 -17.158,-11.864c-7.636,18.245 -23.147,31.044 -41.089,35.856c-0.203,-0.092 0.581,0.269 1.186,0.526c5.16,2.194 10.839,3.407 16.8,3.407c17.877,0 33.203,-10.915 39.68,-26.443c0.309,-0.746 0.684,-1.74 0.584,-1.479l-0.003,-0.003Zm-62.947,21.455c18.492,-3.661 34.781,-16.202 42.516,-34.66c-5.906,-2.203 -12.28,-3.451 -18.929,-3.554c-8.247,13.789 -21.184,23.105 -35.588,27.086c-0.165,-0.227 0.581,0.791 1.152,1.499c2.451,3.053 5.308,5.765 8.491,8.051c0.904,0.65 2.499,1.668 2.358,1.578Zm-14.022,-14.15c6.934,-1.767 13.531,-4.837 19.392,-9.106c-10.007,-13.109 -13.995,-29.071 -12.273,-44.417c0.121,-0.113 -1.478,1.444 -2.337,2.396c-6.869,7.618 -11.053,17.705 -11.053,28.771c0,7.419 1.88,14.398 5.191,20.49c0.478,0.876 1.22,2.104 1.076,1.866l0.004,0Zm11.19,-56.937c-2.795,15.598 0.746,32.219 10.997,45.661c4.83,-4.001 9.069,-8.873 12.469,-14.552c-6.786,-12.187 -8.887,-25.749 -6.869,-38.576c0.11,-0.024 -0.605,0.131 -1.069,0.241c-4.868,1.159 -9.416,3.146 -13.483,5.803c-0.976,0.636 -2.31,1.619 -2.045,1.42l0,0.003Z" style="fill:#262626;fill-rule:nonzero;"/><path d="M456.902,95.436l-42.433,-69.17l23.922,0.108l30.959,52.176l12.448,-21.109l26.088,0l-26.088,37.995l30.202,43.624l-25.547,0l-17.103,-26.629l-18.727,26.629l-25.654,0l31.933,-43.624Z" style="fill-rule:nonzero;"/><path d="M284.138,105.612l25.655,33.448l-26.412,0l-20.026,-31.391l-0.216,0l0,31.391l-21.217,0l0,-81.618l31.717,0c8.515,0 15.371,2.093 20.566,6.278c5.196,4.186 7.794,10.464 7.794,18.835c0,5.845 -1.569,10.897 -4.708,15.155c-3.14,4.257 -7.524,6.892 -13.153,7.902Zm-20.999,-31.933l0,20.35l2.056,0c9.815,0 14.722,-3.391 14.722,-10.175c0,-6.783 -4.907,-10.175 -14.722,-10.175l-2.056,0Z" style="fill-rule:nonzero;"/><path d="M348.004,75.411l0,63.649l-21.216,0l0,-63.649l-17.536,0l0,-17.969l56.288,0l0,17.969l-17.536,0Z" style="fill-rule:nonzero;"/><path d="M419.664,75.411l-25.222,0l0,13.639l23.923,0l0,17.969l-23.923,0l0,14.072l25.222,0l0,17.969l-46.438,0l0,-81.618l46.438,0l0,17.969Z" style="fill-rule:nonzero;"/></g></g></svg>