<?xml version="1.0" encoding="UTF-8" standalone="no"?><!DOCTYPE svg PUBLIC "-//W3C//DTD SVG 1.1//EN" "http://www.w3.org/Graphics/SVG/1.1/DTD/svg11.dtd"><svg width="100%" height="100%" viewBox="0 0 512 200" version="1.1" xmlns="http://www.w3.org/2000/svg" xmlns:xlink="http://www.w3.org/1999/xlink" xml:space="preserve" xmlns:serif="http://www.serif.com/" style="fill-rule:evenodd;clip-rule:evenodd;stroke-linejoin:round;stroke-miterlimit:2;"><rect id="Logo-1" serif:id="Logo 1" x="0" y="0" width="512" height="200" style="fill:none;"/><g id="Logo-11" serif:id="Logo 1"><g><path d="M86.088,123.307l-4.692,-11.165c-1.187,-2.805 -2.482,-5.907 -3.884,-9.305c-1.402,-3.398 -2.859,-6.931 -4.369,-10.599l-40.617,0l-12.946,31.069l-19.58,0c0.432,-0.971 1.457,-3.371 3.075,-7.201c1.618,-3.83 3.641,-8.576 6.068,-14.24c2.427,-5.664 5.124,-11.975 8.091,-18.933c2.967,-6.958 6.014,-14.051 9.143,-21.279c3.128,-7.228 6.176,-14.321 9.143,-21.28c2.966,-6.958 5.663,-13.269 8.091,-18.933c2.427,-5.663 4.45,-10.41 6.068,-14.24c1.618,-3.829 2.643,-6.23 3.075,-7.201c0.431,0.971 1.483,3.372 3.155,7.201c1.672,3.83 3.722,8.577 6.149,14.24c2.427,5.664 5.124,11.975 8.091,18.933c2.967,6.959 6.014,14.052 9.143,21.28c3.129,7.228 6.176,14.321 9.143,21.279c2.967,6.958 5.664,13.269 8.091,18.933c2.427,5.664 4.45,10.41 6.068,14.24c1.618,3.83 2.643,6.23 3.075,7.201l-19.581,0Zm-46.766,-47.737l26.863,0l-11.651,-28.156c-0.108,-0.108 -0.378,-0.837 -0.81,-2.185c-0.431,-1.349 -0.755,-2.562 -0.97,-3.641c-0.216,1.079 -0.54,2.292 -0.971,3.641c-0.432,1.348 -0.648,2.077 -0.648,2.185l-11.813,28.156Z" style="fill-rule:nonzero;"/><path d="M114.892,5.34l31.555,75.894c0,0.108 0.216,0.836 0.648,2.184c0.431,1.349 0.755,2.617 0.971,3.803c0.215,-1.186 0.539,-2.454 0.97,-3.803c0.432,-1.348 0.702,-2.076 0.81,-2.184l31.554,-75.894l19.581,0c-0.432,0.971 -1.457,3.399 -3.075,7.282c-1.618,3.884 -3.641,8.658 -6.068,14.321c-2.427,5.664 -5.124,11.975 -8.091,18.933c-2.967,6.959 -6.014,14.025 -9.143,21.199c-3.129,7.174 -6.176,14.267 -9.143,21.279c-2.967,7.012 -5.664,13.35 -8.091,19.014c-2.427,5.664 -4.477,10.41 -6.149,14.24c-1.672,3.83 -2.724,6.23 -3.155,7.201c-0.432,-0.971 -1.457,-3.371 -3.075,-7.201c-1.618,-3.83 -3.641,-8.576 -6.068,-14.24c-2.428,-5.664 -5.125,-12.002 -8.091,-19.014c-2.967,-7.012 -6.015,-14.105 -9.143,-21.279c-3.129,-7.174 -6.176,-14.24 -9.143,-21.199c-2.967,-6.958 -5.664,-13.269 -8.091,-18.933c-2.427,-5.663 -4.45,-10.437 -6.068,-14.321c-1.618,-3.883 -2.643,-6.311 -3.075,-7.282l19.58,0Z" style="fill-rule:nonzero;"/><path d="M276.712,123.307l-4.692,-11.165c-1.187,-2.805 -2.482,-5.907 -3.884,-9.305c-1.402,-3.398 -2.859,-6.931 -4.369,-10.599l-40.617,0l-12.946,31.069l-19.58,0c0.432,-0.971 1.457,-3.371 3.075,-7.201c1.618,-3.83 3.641,-8.576 6.068,-14.24c2.427,-5.664 5.124,-11.975 8.091,-18.933c2.967,-6.958 6.014,-14.051 9.143,-21.279c3.128,-7.228 6.176,-14.321 9.143,-21.28c2.966,-6.958 5.663,-13.269 8.091,-18.933c2.427,-5.663 4.45,-10.41 6.068,-14.24c1.618,-3.829 2.643,-6.23 3.074,-7.201c0.432,0.971 1.484,3.372 3.156,7.201c1.672,3.83 3.722,8.577 6.149,14.24c2.427,5.664 5.124,11.975 8.091,18.933c2.967,6.959 6.014,14.052 9.143,21.28c3.128,7.228 6.176,14.321 9.143,21.279c2.967,6.958 5.664,13.269 8.091,18.933c2.427,5.664 4.45,10.41 6.068,14.24c1.618,3.83 2.643,6.23 3.075,7.201l-19.581,0Zm-46.766,-47.737l26.863,0l-11.651,-28.156c-0.108,-0.108 -0.378,-0.837 -0.81,-2.185c-0.431,-1.349 -0.755,-2.562 -0.971,-3.641c-0.215,1.079 -0.539,2.292 -0.97,3.641c-0.432,1.348 -0.648,2.077 -0.648,2.185l-11.813,28.156Z" style="fill-rule:nonzero;"/><path d="M414.098,5.34l0,123.469c-0.756,-0.971 -2.428,-2.751 -5.017,-5.34c-2.589,-2.589 -5.771,-5.691 -9.547,-9.305c-3.776,-3.614 -7.956,-7.605 -12.541,-11.974c-4.585,-4.37 -9.251,-8.793 -13.998,-13.27c-4.746,-4.477 -9.385,-8.873 -13.916,-13.188c-4.531,-4.315 -8.658,-8.28 -12.379,-11.894c-3.722,-3.614 -6.851,-6.688 -9.386,-9.223c-2.535,-2.536 -4.18,-4.289 -4.936,-5.26l-3.236,-4.207l0.486,5.178l0,72.981l-19.742,0l0,-123.307c0.755,0.971 2.427,2.724 5.016,5.259c2.589,2.536 5.772,5.583 9.547,9.143c3.776,3.56 7.956,7.444 12.541,11.651c4.585,4.208 9.251,8.496 13.998,12.865c4.747,4.369 9.385,8.684 13.916,12.946c4.531,4.261 8.685,8.145 12.46,11.651c3.776,3.506 6.932,6.499 9.467,8.981c2.535,2.481 4.18,4.207 4.935,5.178l3.075,4.531l-0.485,-5.502l0,-71.363l19.742,0Z" style="fill-rule:nonzero;"/><path d="M511.999,5.34l0,18.933l-29.128,0l0,99.034l-19.904,0l0,-99.034l-28.48,0l0,-18.933l77.512,0Z" style="fill-rule:nonzero;"/></g><g><path d="M0.001,199.289l0,-46.641l26.717,0l0,4.115l-22.275,0l0,17.638l19.662,0l0,4.18l-19.662,0l0,20.708l-4.442,0Z" style="fill-rule:nonzero;"/><path d="M52.716,199.615l-3.004,0l-0.392,-7.055c-0.915,2.178 -2.308,3.941 -4.181,5.291c-1.873,1.35 -4.137,2.025 -6.794,2.025c-2.569,0 -4.605,-0.718 -6.107,-2.155c-1.503,-1.437 -2.297,-3.332 -2.385,-5.683l0,-18.879l3.593,0l0,17.638c0.087,1.48 0.61,2.743 1.568,3.788c0.958,1.046 2.395,1.612 4.311,1.699c1.35,0 2.624,-0.229 3.822,-0.686c1.197,-0.457 2.232,-1.089 3.102,-1.895c0.871,-0.805 1.568,-1.774 2.091,-2.906c0.522,-1.133 0.784,-2.374 0.784,-3.724l0,-13.914l3.592,0l0,26.456Z" style="fill-rule:nonzero;"/><path d="M63.625,161.728l3.593,0l0,11.693l7.774,0l0,3.266l-7.774,0l0,22.602l-3.593,0l0,-22.602l-5.225,0l0,-3.266l5.225,0l0,-11.693Z" style="fill-rule:nonzero;"/><path d="M102.884,199.615l-3.004,0l-0.392,-7.055c-0.915,2.178 -2.308,3.941 -4.181,5.291c-1.873,1.35 -4.137,2.025 -6.794,2.025c-2.569,0 -4.605,-0.718 -6.107,-2.155c-1.503,-1.437 -2.297,-3.332 -2.385,-5.683l0,-18.879l3.593,0l0,17.638c0.087,1.48 0.61,2.743 1.568,3.788c0.958,1.046 2.395,1.612 4.311,1.699c1.35,0 2.624,-0.229 3.822,-0.686c1.197,-0.457 2.231,-1.089 3.102,-1.895c0.871,-0.805 1.568,-1.774 2.091,-2.906c0.522,-1.133 0.784,-2.374 0.784,-3.724l0,-13.914l3.592,0l0,26.456Z" style="fill-rule:nonzero;"/><path d="M125.355,177.079c-1.306,0 -2.558,0.207 -3.756,0.62c-1.197,0.414 -2.253,0.991 -3.168,1.731c-0.914,0.741 -1.644,1.644 -2.188,2.711c-0.544,1.067 -0.817,2.254 -0.817,3.56l0,13.588l-3.592,0l0,-26.13l3.07,0l0.326,6.729c0.523,-1.133 1.198,-2.145 2.025,-3.038c0.828,-0.893 1.731,-1.655 2.711,-2.286c0.98,-0.632 2.004,-1.121 3.07,-1.47c1.067,-0.348 2.08,-0.522 3.038,-0.522l-0.719,4.507Z" style="fill-rule:nonzero;"/><path d="M130.189,163.688c0,-0.741 0.273,-1.361 0.817,-1.862c0.544,-0.501 1.143,-0.751 1.796,-0.751c0.653,0 1.241,0.25 1.764,0.751c0.523,0.501 0.784,1.121 0.784,1.862c0,0.784 -0.261,1.415 -0.784,1.894c-0.523,0.479 -1.111,0.719 -1.764,0.719c-0.653,0 -1.252,-0.24 -1.796,-0.719c-0.544,-0.479 -0.817,-1.11 -0.817,-1.894Zm4.377,35.601l-3.593,0l0,-26.13l3.593,0l0,26.13Z" style="fill-rule:nonzero;"/><path d="M157.233,175.642l-1.96,2.547c-0.348,-0.479 -1.034,-0.925 -2.057,-1.339c-1.024,-0.414 -2.058,-0.62 -3.103,-0.62c-0.436,0 -0.904,0.065 -1.405,0.196c-0.5,0.13 -0.958,0.337 -1.371,0.62c-0.414,0.283 -0.763,0.653 -1.046,1.111c-0.283,0.457 -0.424,1.012 -0.424,1.665c0,1.002 0.305,1.797 0.914,2.385c0.61,0.588 1.372,1.099 2.287,1.535c0.914,0.435 1.905,0.849 2.972,1.241c1.067,0.392 2.058,0.871 2.972,1.437c0.915,0.566 1.677,1.296 2.286,2.188c0.61,0.893 0.915,2.036 0.915,3.43c0,2.177 -0.74,4.017 -2.221,5.52c-1.481,1.502 -3.593,2.253 -6.336,2.253c-1.481,0 -2.994,-0.261 -4.54,-0.784c-1.546,-0.522 -2.798,-1.35 -3.756,-2.482c0.174,-0.174 0.391,-0.414 0.653,-0.719c0.261,-0.304 0.501,-0.587 0.718,-0.849c0.218,-0.261 0.403,-0.49 0.556,-0.686c0.152,-0.196 0.25,-0.294 0.294,-0.294c0.13,0.218 0.413,0.458 0.849,0.719c0.435,0.261 0.936,0.512 1.502,0.751c0.566,0.24 1.176,0.447 1.829,0.621c0.653,0.174 1.285,0.261 1.895,0.261c0.522,0 1.077,-0.076 1.665,-0.229c0.588,-0.152 1.133,-0.402 1.633,-0.751c0.501,-0.348 0.904,-0.784 1.209,-1.306c0.305,-0.523 0.457,-1.154 0.457,-1.895c0,-1.001 -0.305,-1.796 -0.914,-2.384c-0.61,-0.588 -1.372,-1.099 -2.287,-1.535c-0.914,-0.435 -1.916,-0.838 -3.005,-1.208c-1.088,-0.371 -2.09,-0.839 -3.004,-1.405c-0.915,-0.566 -1.677,-1.306 -2.287,-2.221c-0.609,-0.914 -0.914,-2.09 -0.914,-3.527c0,-1.307 0.239,-2.406 0.718,-3.299c0.479,-0.893 1.089,-1.633 1.829,-2.221c0.741,-0.588 1.579,-1.013 2.515,-1.274c0.937,-0.261 1.84,-0.392 2.711,-0.392c1.132,0 2.374,0.24 3.724,0.719c1.35,0.479 2.525,1.219 3.527,2.221Z" style="fill-rule:nonzero;"/><path d="M167.162,161.728l3.593,0l0,11.693l7.773,0l0,3.266l-7.773,0l0,22.602l-3.593,0l0,-22.602l-5.226,0l0,-3.266l5.226,0l0,-11.693Z" style="fill-rule:nonzero;"/><path d="M183.036,163.688c0,-0.741 0.272,-1.361 0.816,-1.862c0.544,-0.501 1.143,-0.751 1.796,-0.751c0.654,0 1.242,0.25 1.764,0.751c0.523,0.501 0.784,1.121 0.784,1.862c0,0.784 -0.261,1.415 -0.784,1.894c-0.522,0.479 -1.11,0.719 -1.764,0.719c-0.653,0 -1.252,-0.24 -1.796,-0.719c-0.544,-0.479 -0.816,-1.11 -0.816,-1.894Zm4.376,35.601l-3.593,0l0,-26.13l3.593,0l0,26.13Z" style="fill-rule:nonzero;"/><path d="M214.586,194.128l2.221,2.678c-1.175,0.958 -2.493,1.699 -3.952,2.221c-1.458,0.523 -3.015,0.784 -4.67,0.784c-1.916,0 -3.713,-0.359 -5.389,-1.078c-1.677,-0.718 -3.136,-1.687 -4.377,-2.907c-1.241,-1.219 -2.221,-2.656 -2.939,-4.311c-0.719,-1.655 -1.078,-3.418 -1.078,-5.291c0,-1.873 0.359,-3.647 1.078,-5.324c0.718,-1.676 1.698,-3.124 2.939,-4.344c1.241,-1.219 2.7,-2.188 4.377,-2.907c1.676,-0.718 3.473,-1.077 5.389,-1.077c1.655,0 3.222,0.261 4.703,0.783c1.481,0.523 2.809,1.263 3.985,2.221c-0.349,0.479 -0.719,0.926 -1.111,1.34c-0.392,0.413 -0.784,0.86 -1.176,1.339c-1.785,-1.437 -3.919,-2.156 -6.401,-2.156c-1.437,0 -2.776,0.261 -4.018,0.784c-1.241,0.522 -2.318,1.23 -3.233,2.123c-0.915,0.893 -1.633,1.96 -2.156,3.201c-0.522,1.241 -0.784,2.58 -0.784,4.017c0,1.394 0.262,2.7 0.784,3.919c0.523,1.22 1.241,2.287 2.156,3.201c0.915,0.915 1.992,1.633 3.233,2.156c1.242,0.522 2.581,0.784 4.018,0.784c2.482,0 4.616,-0.719 6.401,-2.156Z" style="fill-rule:nonzero;"/><rect x="239.54" y="149.251" width="3.593" height="50.037" style="fill-rule:nonzero;"/><path d="M250.253,186.355c0,-1.873 0.359,-3.648 1.078,-5.324c0.718,-1.677 1.698,-3.147 2.939,-4.409c1.241,-1.263 2.689,-2.254 4.344,-2.973c1.655,-0.718 3.419,-1.077 5.291,-1.077c1.307,0 2.526,0.174 3.658,0.522c1.133,0.349 2.145,0.817 3.038,1.405c0.893,0.587 1.644,1.241 2.253,1.959c0.61,0.719 1.067,1.426 1.372,2.123l0.262,-5.422l3.331,0l0,26.13l-3.593,0l0,-2.679l0.066,-2.613c-0.305,0.741 -0.763,1.448 -1.372,2.123c-0.61,0.675 -1.361,1.296 -2.254,1.862c-0.893,0.566 -1.905,1.013 -3.037,1.339c-1.133,0.327 -2.374,0.49 -3.724,0.49c-1.959,0 -3.778,-0.359 -5.454,-1.078c-1.677,-0.718 -3.114,-1.687 -4.312,-2.907c-1.197,-1.219 -2.144,-2.645 -2.841,-4.278c-0.697,-1.633 -1.045,-3.364 -1.045,-5.193Zm3.592,-0.196c0,1.437 0.262,2.765 0.784,3.984c0.523,1.22 1.241,2.287 2.156,3.201c0.915,0.915 1.992,1.633 3.233,2.156c1.242,0.522 2.581,0.784 4.018,0.784c1.437,0 2.776,-0.262 4.017,-0.784c1.241,-0.523 2.319,-1.241 3.234,-2.156c0.914,-0.914 1.633,-1.981 2.155,-3.201c0.523,-1.219 0.784,-2.547 0.784,-3.984c0,-1.394 -0.261,-2.7 -0.784,-3.92c-0.522,-1.219 -1.241,-2.286 -2.155,-3.2c-0.915,-0.915 -1.993,-1.634 -3.234,-2.156c-1.241,-0.523 -2.58,-0.784 -4.017,-0.784c-1.437,0 -2.776,0.261 -4.018,0.784c-1.241,0.522 -2.318,1.23 -3.233,2.123c-0.915,0.893 -1.633,1.949 -2.156,3.168c-0.522,1.219 -0.784,2.548 -0.784,3.985Z" style="fill-rule:nonzero;"/><path d="M314.4,186.224c0,1.916 -0.338,3.702 -1.013,5.356c-0.675,1.655 -1.622,3.092 -2.841,4.312c-1.22,1.219 -2.657,2.177 -4.312,2.874c-1.654,0.697 -3.462,1.045 -5.421,1.045c-2.439,0 -4.606,-0.566 -6.5,-1.698c-1.894,-1.132 -3.212,-2.526 -3.952,-4.181l0.065,2.613l0,2.744l-3.592,0l0,-50.038l3.592,0l0,29.396c0.828,-1.612 2.156,-3.027 3.985,-4.246c1.829,-1.22 4.006,-1.829 6.532,-1.829c1.96,0 3.756,0.337 5.389,1.012c1.633,0.675 3.049,1.611 4.246,2.809c1.198,1.198 2.134,2.635 2.809,4.311c0.675,1.677 1.013,3.517 1.013,5.52Zm-3.854,0c0,-1.437 -0.24,-2.776 -0.719,-4.017c-0.479,-1.241 -1.165,-2.308 -2.058,-3.201c-0.892,-0.893 -1.948,-1.601 -3.168,-2.123c-1.219,-0.523 -2.547,-0.784 -3.984,-0.784c-1.437,0 -2.777,0.261 -4.018,0.784c-1.241,0.522 -2.319,1.23 -3.233,2.123c-0.915,0.893 -1.633,1.949 -2.156,3.168c-0.522,1.219 -0.784,2.548 -0.784,3.985c0,1.437 0.262,2.765 0.784,3.984c0.523,1.22 1.241,2.287 2.156,3.201c0.914,0.915 1.992,1.633 3.233,2.156c1.241,0.522 2.581,0.784 4.018,0.784c1.437,0 2.765,-0.262 3.984,-0.784c1.22,-0.523 2.276,-1.241 3.168,-2.156c0.893,-0.914 1.579,-1.981 2.058,-3.201c0.479,-1.219 0.719,-2.525 0.719,-3.919Z" style="fill-rule:nonzero;"/><path d="M319.56,186.224c0,-1.873 0.36,-3.647 1.078,-5.324c0.719,-1.676 1.698,-3.135 2.94,-4.376c1.241,-1.242 2.7,-2.221 4.376,-2.94c1.677,-0.719 3.473,-1.078 5.389,-1.078c1.917,0 3.713,0.359 5.39,1.078c1.676,0.719 3.124,1.698 4.343,2.94c1.22,1.241 2.178,2.7 2.875,4.376c0.696,1.677 1.045,3.451 1.045,5.324c0,1.873 -0.349,3.636 -1.045,5.291c-0.697,1.655 -1.666,3.092 -2.907,4.311c-1.241,1.22 -2.689,2.189 -4.344,2.907c-1.655,0.719 -3.462,1.078 -5.422,1.078c-1.916,0 -3.702,-0.337 -5.356,-1.012c-1.655,-0.675 -3.103,-1.623 -4.344,-2.842c-1.242,-1.219 -2.221,-2.656 -2.94,-4.311c-0.718,-1.655 -1.078,-3.462 -1.078,-5.422Zm3.593,0c0,1.394 0.261,2.7 0.784,3.919c0.522,1.22 1.241,2.287 2.156,3.201c0.914,0.915 1.981,1.633 3.2,2.156c1.22,0.522 2.526,0.784 3.92,0.784c1.393,0 2.711,-0.262 3.952,-0.784c1.241,-0.523 2.319,-1.241 3.233,-2.156c0.915,-0.914 1.633,-1.981 2.156,-3.201c0.522,-1.219 0.784,-2.525 0.784,-3.919c0,-1.394 -0.262,-2.711 -0.784,-3.952c-0.523,-1.241 -1.241,-2.319 -2.156,-3.233c-0.914,-0.915 -1.992,-1.634 -3.233,-2.156c-1.241,-0.523 -2.559,-0.784 -3.952,-0.784c-1.394,0 -2.7,0.261 -3.92,0.784c-1.219,0.522 -2.286,1.241 -3.2,2.156c-0.915,0.914 -1.634,1.992 -2.156,3.233c-0.523,1.241 -0.784,2.558 -0.784,3.952Z" style="fill-rule:nonzero;"/><path d="M367.573,177.079c-1.307,0 -2.559,0.207 -3.757,0.62c-1.197,0.414 -2.253,0.991 -3.168,1.731c-0.914,0.741 -1.644,1.644 -2.188,2.711c-0.544,1.067 -0.817,2.254 -0.817,3.56l0,13.588l-3.592,0l0,-26.13l3.07,0l0.327,6.729c0.522,-1.133 1.197,-2.145 2.025,-3.038c0.827,-0.893 1.731,-1.655 2.71,-2.286c0.98,-0.632 2.004,-1.121 3.071,-1.47c1.067,-0.348 2.079,-0.522 3.037,-0.522l-0.718,4.507Z" style="fill-rule:nonzero;"/><path d="M370.381,186.355c0,-1.873 0.36,-3.648 1.078,-5.324c0.719,-1.677 1.699,-3.147 2.94,-4.409c1.241,-1.263 2.689,-2.254 4.344,-2.973c1.655,-0.718 3.418,-1.077 5.291,-1.077c1.306,0 2.526,0.174 3.658,0.522c1.132,0.349 2.145,0.817 3.037,1.405c0.893,0.587 1.644,1.241 2.254,1.959c0.61,0.719 1.067,1.426 1.372,2.123l0.261,-5.422l3.332,0l0,26.13l-3.593,0l0,-2.679l0.065,-2.613c-0.305,0.741 -0.762,1.448 -1.372,2.123c-0.609,0.675 -1.36,1.296 -2.253,1.862c-0.893,0.566 -1.905,1.013 -3.038,1.339c-1.132,0.327 -2.373,0.49 -3.723,0.49c-1.96,0 -3.778,-0.359 -5.455,-1.078c-1.676,-0.718 -3.113,-1.687 -4.311,-2.907c-1.197,-1.219 -2.145,-2.645 -2.841,-4.278c-0.697,-1.633 -1.046,-3.364 -1.046,-5.193Zm3.593,-0.196c0,1.437 0.261,2.765 0.784,3.984c0.523,1.22 1.241,2.287 2.156,3.201c0.914,0.915 1.992,1.633 3.233,2.156c1.241,0.522 2.58,0.784 4.018,0.784c1.437,0 2.776,-0.262 4.017,-0.784c1.241,-0.523 2.319,-1.241 3.233,-2.156c0.915,-0.914 1.633,-1.981 2.156,-3.201c0.523,-1.219 0.784,-2.547 0.784,-3.984c0,-1.394 -0.261,-2.7 -0.784,-3.92c-0.523,-1.219 -1.241,-2.286 -2.156,-3.2c-0.914,-0.915 -1.992,-1.634 -3.233,-2.156c-1.241,-0.523 -2.58,-0.784 -4.017,-0.784c-1.438,0 -2.777,0.261 -4.018,0.784c-1.241,0.522 -2.319,1.23 -3.233,2.123c-0.915,0.893 -1.633,1.949 -2.156,3.168c-0.523,1.219 -0.784,2.548 -0.784,3.985Z" style="fill-rule:nonzero;"/><path d="M408.922,161.728l3.593,0l0,11.693l7.773,0l0,3.266l-7.773,0l0,22.602l-3.593,0l0,-22.602l-5.226,0l0,-3.266l5.226,0l0,-11.693Z" style="fill-rule:nonzero;"/><path d="M422.901,186.224c0,-1.873 0.359,-3.647 1.078,-5.324c0.718,-1.676 1.698,-3.135 2.939,-4.376c1.241,-1.242 2.7,-2.221 4.377,-2.94c1.677,-0.719 3.473,-1.078 5.389,-1.078c1.916,0 3.713,0.359 5.389,1.078c1.677,0.719 3.125,1.698 4.344,2.94c1.22,1.241 2.178,2.7 2.874,4.376c0.697,1.677 1.046,3.451 1.046,5.324c0,1.873 -0.349,3.636 -1.046,5.291c-0.696,1.655 -1.665,3.092 -2.906,4.311c-1.242,1.22 -2.69,2.189 -4.344,2.907c-1.655,0.719 -3.463,1.078 -5.422,1.078c-1.916,0 -3.702,-0.337 -5.357,-1.012c-1.655,-0.675 -3.103,-1.623 -4.344,-2.842c-1.241,-1.219 -2.221,-2.656 -2.939,-4.311c-0.719,-1.655 -1.078,-3.462 -1.078,-5.422Zm3.593,0c0,1.394 0.261,2.7 0.784,3.919c0.522,1.22 1.241,2.287 2.155,3.201c0.915,0.915 1.982,1.633 3.201,2.156c1.219,0.522 2.526,0.784 3.919,0.784c1.394,0 2.711,-0.262 3.952,-0.784c1.242,-0.523 2.319,-1.241 3.234,-2.156c0.914,-0.914 1.633,-1.981 2.156,-3.201c0.522,-1.219 0.784,-2.525 0.784,-3.919c0,-1.394 -0.262,-2.711 -0.784,-3.952c-0.523,-1.241 -1.242,-2.319 -2.156,-3.233c-0.915,-0.915 -1.992,-1.634 -3.234,-2.156c-1.241,-0.523 -2.558,-0.784 -3.952,-0.784c-1.393,0 -2.7,0.261 -3.919,0.784c-1.219,0.522 -2.286,1.241 -3.201,2.156c-0.914,0.914 -1.633,1.992 -2.155,3.233c-0.523,1.241 -0.784,2.558 -0.784,3.952Z" style="fill-rule:nonzero;"/><path d="M456.542,163.688c0,-0.741 0.272,-1.361 0.817,-1.862c0.544,-0.501 1.143,-0.751 1.796,-0.751c0.653,0 1.241,0.25 1.764,0.751c0.522,0.501 0.784,1.121 0.784,1.862c0,0.784 -0.262,1.415 -0.784,1.894c-0.523,0.479 -1.111,0.719 -1.764,0.719c-0.653,0 -1.252,-0.24 -1.796,-0.719c-0.545,-0.479 -0.817,-1.11 -0.817,-1.894Zm4.377,35.601l-3.593,0l0,-26.13l3.593,0l0,26.13Z" style="fill-rule:nonzero;"/><path d="M483.39,177.079c-1.307,0 -2.559,0.207 -3.756,0.62c-1.198,0.414 -2.254,0.991 -3.168,1.731c-0.915,0.741 -1.644,1.644 -2.189,2.711c-0.544,1.067 -0.816,2.254 -0.816,3.56l0,13.588l-3.593,0l0,-26.13l3.07,0l0.327,6.729c0.522,-1.133 1.197,-2.145 2.025,-3.038c0.827,-0.893 1.731,-1.655 2.711,-2.286c0.98,-0.632 2.003,-1.121 3.07,-1.47c1.067,-0.348 2.079,-0.522 3.037,-0.522l-0.718,4.507Z" style="fill-rule:nonzero;"/><path d="M509.715,196.153c-1.263,1.132 -2.744,2.025 -4.442,2.678c-1.698,0.654 -3.462,0.98 -5.291,0.98c-1.916,0 -3.713,-0.359 -5.389,-1.078c-1.677,-0.718 -3.136,-1.687 -4.377,-2.907c-1.241,-1.219 -2.221,-2.656 -2.939,-4.311c-0.719,-1.655 -1.078,-3.418 -1.078,-5.291c0,-1.873 0.359,-3.647 1.078,-5.324c0.718,-1.676 1.698,-3.135 2.939,-4.376c1.241,-1.242 2.689,-2.221 4.344,-2.94c1.655,-0.719 3.419,-1.078 5.291,-1.078c2.875,0 5.368,0.871 7.48,2.613c2.112,1.742 3.669,3.963 4.67,6.663c-1.48,0.566 -3.124,1.209 -4.932,1.927c-1.807,0.719 -3.658,1.459 -5.552,2.221c-1.894,0.762 -3.778,1.524 -5.65,2.286c-1.873,0.762 -3.615,1.47 -5.226,2.123c0.784,1.786 1.992,3.223 3.625,4.312c1.633,1.088 3.495,1.633 5.585,1.633c1.394,0 2.722,-0.24 3.985,-0.719c1.263,-0.479 2.33,-1.132 3.201,-1.96l2.678,2.548Zm-2.221,-15.285c-0.74,-1.481 -1.785,-2.646 -3.135,-3.495c-1.35,-0.849 -2.853,-1.274 -4.508,-1.274c-1.393,0 -2.7,0.272 -3.919,0.817c-1.219,0.544 -2.286,1.273 -3.201,2.188c-0.914,0.914 -1.633,1.97 -2.156,3.168c-0.522,1.198 -0.783,2.471 -0.783,3.821c0,0.697 0.065,1.307 0.196,1.829c1.35,-0.566 2.787,-1.154 4.311,-1.763c1.524,-0.61 3.048,-1.231 4.572,-1.862c1.525,-0.631 3.027,-1.241 4.508,-1.829c1.48,-0.588 2.852,-1.121 4.115,-1.6Z" style="fill-rule:nonzero;"/></g></g></svg>