<?xml version="1.0" encoding="UTF-8" standalone="no"?><!DOCTYPE svg PUBLIC "-//W3C//DTD SVG 1.1//EN" "http://www.w3.org/Graphics/SVG/1.1/DTD/svg11.dtd"><svg width="100%" height="100%" viewBox="0 0 512 200" version="1.1" xmlns="http://www.w3.org/2000/svg" xmlns:xlink="http://www.w3.org/1999/xlink" xml:space="preserve" xmlns:serif="http://www.serif.com/" style="fill-rule:evenodd;clip-rule:evenodd;stroke-linejoin:round;stroke-miterlimit:2;"><g id="Logo-2" serif:id="Logo 2"><rect x="0" y="0" width="512" height="200" style="fill:none;"/><g><g><g><path d="M143.15,50.18l0,4.258c-2.251,0.537 -3.376,2.327 -3.376,5.371l0,35.715c0,1.381 0.192,2.442 0.575,3.184c0.333,0.613 1.036,1.138 2.11,1.573l0,4.334c-0.818,0 -1.566,-0.063 -2.244,-0.191c-0.678,-0.128 -1.579,-0.384 -2.705,-0.768c-2.685,-0.92 -5.115,-2.327 -7.288,-4.219c-2.174,-1.893 -3.965,-4.156 -5.371,-6.79c-2.174,-4.118 -3.261,-8.99 -3.261,-14.616c0,-5.448 0.972,-10.281 2.916,-14.501c1.943,-4.22 4.731,-7.532 8.363,-9.936c2.097,-1.407 4.347,-2.417 6.751,-3.031c0.998,-0.255 2.174,-0.383 3.53,-0.383Zm3.145,4.181l0,-4.143c4.169,0.384 7.596,1.151 10.281,2.302c0.793,0.358 1.407,0.537 1.842,0.537c0.409,0 0.722,-0.096 0.94,-0.288c0.217,-0.192 0.658,-0.735 1.323,-1.63c0.46,-0.64 1.036,-0.959 1.726,-0.959c0.716,0 1.221,0.198 1.516,0.594c0.294,0.397 0.441,1.055 0.441,1.976l0,14.923c0,1.944 -0.716,2.915 -2.149,2.915c-0.716,0 -1.246,-0.191 -1.592,-0.575c-0.345,-0.384 -0.671,-1.138 -0.978,-2.263c-0.383,-1.433 -1.074,-3.101 -2.071,-5.007c-0.998,-1.905 -1.957,-3.408 -2.877,-4.507c-1.049,-1.279 -2.225,-2.219 -3.53,-2.82c-1.304,-0.601 -2.928,-0.952 -4.872,-1.055Zm17.34,42.812c-1.023,1.023 -2.385,2.065 -4.086,3.127c-1.7,1.061 -3.305,1.899 -4.814,2.512c-1.381,0.538 -2.909,0.972 -4.584,1.305c-1.676,0.332 -3.152,0.498 -4.431,0.498l0,-4.334c0.741,-0.179 1.298,-0.397 1.669,-0.653c0.37,-0.255 0.684,-0.613 0.939,-1.074c0.435,-0.793 0.653,-1.803 0.653,-3.03l0,-11.202c0,-0.997 -0.192,-1.714 -0.576,-2.148c-0.179,-0.256 -0.358,-0.416 -0.537,-0.48c-0.179,-0.064 -0.767,-0.211 -1.765,-0.441c-1.227,-0.307 -1.841,-1.023 -1.841,-2.148c0,-0.665 0.288,-1.177 0.863,-1.535c0.576,-0.358 1.426,-0.537 2.551,-0.537l15.307,0c1.151,0 1.963,0.16 2.436,0.48c0.473,0.319 0.709,0.876 0.709,1.668c0,0.486 -0.095,0.889 -0.287,1.209c-0.192,0.32 -0.544,0.658 -1.055,1.016c-0.512,0.358 -0.831,0.691 -0.959,0.998c-0.128,0.307 -0.192,0.869 -0.192,1.688l0,13.081Z" style="fill:#4d4d4d;fill-rule:nonzero;"/><path d="M192.828,51.216l0,45.075c0,0.997 0.192,1.713 0.576,2.148c0.204,0.256 0.396,0.416 0.575,0.48c0.179,0.064 0.767,0.223 1.765,0.479c1.227,0.282 1.841,0.985 1.841,2.11c0,0.665 -0.332,1.202 -0.997,1.611c-0.486,0.307 -1.292,0.461 -2.417,0.461l-1.304,0l-17.11,0l-0.997,0c-0.921,0 -1.631,-0.173 -2.129,-0.518c-0.499,-0.345 -0.748,-0.838 -0.748,-1.477c0,-1.049 0.511,-1.739 1.534,-2.072c0.844,-0.281 1.336,-0.454 1.477,-0.518c0.141,-0.064 0.288,-0.211 0.441,-0.441c0.307,-0.409 0.461,-1.061 0.461,-1.956l0,-38.401c0,-0.895 -0.154,-1.547 -0.461,-1.956c-0.153,-0.23 -0.3,-0.377 -0.441,-0.441c-0.141,-0.064 -0.633,-0.237 -1.477,-0.518c-1.023,-0.333 -1.534,-1.023 -1.534,-2.072c0,-0.639 0.249,-1.131 0.748,-1.477c0.498,-0.345 1.208,-0.517 2.129,-0.517l18.068,0Zm11.777,26.699c2.353,0.359 4.163,0.755 5.429,1.19c1.266,0.434 2.41,1.023 3.433,1.764c1.074,0.793 1.899,1.739 2.474,2.839c0.576,1.1 0.864,2.264 0.864,3.491l0,7.941c0,0.818 0.268,1.228 0.805,1.228c0.205,0 0.377,-0.058 0.518,-0.173c0.141,-0.115 0.339,-0.339 0.595,-0.671c0.639,-0.87 1.291,-1.305 1.956,-1.305c0.435,0 0.87,0.231 1.304,0.691c0.435,0.46 0.653,0.921 0.653,1.381c0,0.793 -0.378,1.758 -1.132,2.896c-0.754,1.138 -1.694,2.155 -2.82,3.05c-1.048,0.844 -2.186,1.451 -3.414,1.822c-1.227,0.371 -2.672,0.556 -4.335,0.556c-3.376,0 -6.01,-0.965 -7.902,-2.896c-1.893,-1.931 -2.839,-4.623 -2.839,-8.075l0,-6.445c0,-1.432 -0.013,-2.263 -0.038,-2.493c-0.128,-1.023 -0.486,-1.906 -1.075,-2.647c-0.741,-0.896 -1.803,-1.42 -3.184,-1.573l0,-4.105c1.381,-0.205 2.366,-0.563 2.954,-1.074c0.512,-0.46 0.863,-0.985 1.055,-1.573c0.192,-0.588 0.288,-1.458 0.288,-2.609l0,-10.166c0,-1.611 -0.313,-2.813 -0.94,-3.606c-0.627,-0.792 -1.758,-1.419 -3.395,-1.879l0,-4.258l0.997,0c2.839,0 5.256,0.102 7.251,0.306c2.966,0.282 5.613,1.254 7.941,2.916c3.35,2.378 5.025,5.767 5.025,10.166c0,3.606 -1.125,6.56 -3.376,8.862c-0.946,0.971 -2.052,1.764 -3.318,2.378c-1.266,0.614 -3.19,1.304 -5.774,2.071Z" style="fill:#4d4d4d;fill-rule:nonzero;"/><path d="M247.801,103.58l-17.109,0l-0.998,0c-0.92,0 -1.63,-0.173 -2.129,-0.518c-0.499,-0.345 -0.748,-0.838 -0.748,-1.477c0,-1.049 0.512,-1.739 1.535,-2.072c0.844,-0.281 1.336,-0.454 1.477,-0.518c0.14,-0.064 0.287,-0.211 0.441,-0.441c0.307,-0.409 0.46,-1.061 0.46,-1.956l0,-38.401c0,-0.895 -0.153,-1.547 -0.46,-1.956c-0.154,-0.23 -0.301,-0.377 -0.441,-0.441c-0.141,-0.064 -0.633,-0.237 -1.477,-0.518c-1.023,-0.333 -1.535,-1.023 -1.535,-2.072c0,-0.639 0.249,-1.131 0.748,-1.477c0.499,-0.345 1.209,-0.517 2.129,-0.517l19.105,0c0.92,0 1.63,0.172 2.129,0.517c0.498,0.346 0.748,0.838 0.748,1.477c0,1.049 -0.512,1.739 -1.535,2.072c-0.844,0.281 -1.336,0.454 -1.477,0.518c-0.14,0.064 -0.287,0.211 -0.441,0.441c-0.307,0.409 -0.46,1.061 -0.46,1.956l0,38.401c0,0.895 0.153,1.547 0.46,1.956c0.154,0.23 0.301,0.377 0.441,0.441c0.141,0.064 0.633,0.237 1.477,0.518c1.023,0.333 1.535,1.023 1.535,2.072c0,0.639 -0.25,1.132 -0.748,1.477c-0.499,0.345 -1.209,0.518 -2.129,0.518l-0.998,0Z" style="fill:#4d4d4d;fill-rule:nonzero;"/><path d="M275.652,50.18l0,4.411c-1.586,0.435 -2.794,1.107 -3.625,2.014c-0.831,0.908 -1.247,2.027 -1.247,3.357c0,1.279 0.345,2.398 1.036,3.357c0.69,0.959 1.816,1.873 3.376,2.743c1.074,0.588 3.503,1.713 7.288,3.375c2.302,0.998 4.086,1.899 5.352,2.705c1.266,0.806 2.461,1.809 3.587,3.011c3.018,3.172 4.526,6.944 4.526,11.317c0,3.299 -0.818,6.317 -2.455,9.054c-1.637,2.736 -3.887,4.884 -6.751,6.444c-1.535,0.819 -3.216,1.465 -5.045,1.938c-1.829,0.473 -3.536,0.709 -5.121,0.709l0,-4.373c2.225,-0.537 3.829,-1.285 4.814,-2.244c0.985,-0.959 1.477,-2.257 1.477,-3.894c0,-1.713 -0.767,-3.222 -2.302,-4.526c-1.023,-0.844 -2.966,-1.893 -5.831,-3.146c-3.145,-1.381 -5.3,-2.366 -6.464,-2.954c-1.163,-0.588 -2.282,-1.279 -3.356,-2.072c-4.808,-3.427 -7.212,-7.992 -7.212,-13.695c0,-2.915 0.601,-5.607 1.803,-8.075c1.202,-2.468 2.877,-4.456 5.025,-5.965c2.992,-2.097 6.701,-3.261 11.125,-3.491Zm3.031,4.411l0,-4.219c1.534,0.102 2.864,0.3 3.989,0.594c1.125,0.294 2.724,0.876 4.795,1.746c0.512,0.204 0.934,0.307 1.266,0.307c0.486,0 0.844,-0.167 1.075,-0.499l0.843,-1.113c0.41,-0.562 0.908,-0.844 1.497,-0.844c0.69,0 1.195,0.25 1.515,0.748c0.32,0.499 0.479,1.286 0.479,2.36l0,12.659c0,0.742 -0.211,1.349 -0.633,1.822c-0.422,0.473 -0.965,0.71 -1.63,0.71c-0.511,0 -0.985,-0.166 -1.419,-0.499c-0.231,-0.204 -0.416,-0.454 -0.557,-0.748c-0.14,-0.294 -0.275,-0.786 -0.402,-1.477c-0.282,-1.253 -0.768,-2.544 -1.458,-3.874c-0.691,-1.33 -1.496,-2.519 -2.417,-3.568c-1.841,-2.071 -4.156,-3.44 -6.943,-4.105Zm-5.026,45.651l0,4.373c-2.097,0 -4.412,-0.601 -6.943,-1.803c-0.947,-0.434 -1.599,-0.716 -1.957,-0.844c-0.358,-0.127 -0.703,-0.191 -1.036,-0.191c-0.511,0 -0.895,0.083 -1.151,0.249c-0.255,0.166 -0.664,0.582 -1.227,1.247c-0.46,0.562 -0.959,0.844 -1.496,0.844c-1.432,0 -2.148,-1.1 -2.148,-3.299l0,-13.964c0,-0.716 0.204,-1.324 0.613,-1.822c0.41,-0.499 0.921,-0.761 1.535,-0.787c0.562,-0.025 1.004,0.134 1.323,0.48c0.32,0.345 0.595,0.952 0.825,1.822c0.588,2.199 1.439,4.258 2.551,6.176c1.113,1.918 2.411,3.542 3.894,4.872c1.509,1.381 3.248,2.264 5.217,2.647Z" style="fill:#4d4d4d;fill-rule:nonzero;"/><path d="M328.706,85.012l-4.642,18.568l-8.286,0l-12.352,-45.076c-0.282,-1.023 -0.544,-1.713 -0.787,-2.071c-0.243,-0.358 -0.658,-0.652 -1.246,-0.883c-1.023,-0.409 -1.535,-1.086 -1.535,-2.033c0,-0.741 0.32,-1.31 0.959,-1.707c0.639,-0.396 1.535,-0.594 2.685,-0.594l17.954,0c1.125,0 1.892,0.153 2.302,0.46c0.537,0.384 0.805,0.908 0.805,1.573c0,0.793 -0.447,1.457 -1.342,1.995c-0.742,0.434 -1.222,0.799 -1.439,1.093c-0.217,0.294 -0.326,0.735 -0.326,1.323c0,0.282 0.038,0.563 0.115,0.844l7.135,26.508Zm3.645,-33.796l7.902,0l9.207,34.909l-4.373,17.455l-8.363,0l-8.938,-33.721l4.565,-18.643Zm18.567,28.771l-1.995,-7.787l2.8,-11.356c0.231,-0.895 0.346,-1.585 0.346,-2.071c0,-0.767 -0.211,-1.426 -0.633,-1.976c-0.422,-0.55 -1.119,-1.068 -2.091,-1.553c-0.639,-0.333 -1.08,-0.653 -1.323,-0.959c-0.243,-0.307 -0.365,-0.704 -0.365,-1.19c0,-0.665 0.211,-1.144 0.633,-1.438c0.422,-0.294 1.093,-0.441 2.014,-0.441l9.13,0c1.049,0 1.784,0.147 2.206,0.441c0.422,0.294 0.633,0.786 0.633,1.477c0,0.409 -0.109,0.748 -0.326,1.016c-0.217,0.269 -0.582,0.518 -1.093,0.748c-1.151,0.512 -1.995,1.049 -2.532,1.611c-1.177,1.177 -2.059,2.878 -2.647,5.103l-4.757,18.375Z" style="fill-rule:nonzero;"/><path d="M387.439,51.216l0,52.364l-17.072,0l-0.997,0c-0.921,0 -1.63,-0.173 -2.129,-0.518c-0.499,-0.345 -0.748,-0.838 -0.748,-1.477c0,-1.049 0.511,-1.739 1.534,-2.072c0.844,-0.281 1.337,-0.454 1.477,-0.518c0.141,-0.064 0.288,-0.211 0.441,-0.441c0.307,-0.409 0.461,-1.061 0.461,-1.956l0,-38.401c0,-0.895 -0.154,-1.547 -0.461,-1.956c-0.153,-0.23 -0.3,-0.377 -0.441,-0.441c-0.14,-0.064 -0.633,-0.237 -1.477,-0.518c-1.023,-0.333 -1.534,-1.023 -1.534,-2.072c0,-0.639 0.249,-1.131 0.748,-1.477c0.499,-0.345 1.208,-0.517 2.129,-0.517l18.069,0Zm3.414,0l15.46,0l0,13.58c0,0.793 -0.154,1.368 -0.461,1.726c-0.307,0.358 -0.793,0.537 -1.457,0.537c-0.563,0 -0.972,-0.115 -1.228,-0.345c-0.256,-0.23 -0.499,-0.704 -0.729,-1.42c-0.972,-2.966 -2.398,-5.23 -4.277,-6.79c-1.88,-1.56 -4.316,-2.493 -7.308,-2.8l0,-4.488Zm-0.192,27.927l0,-4.45c1.483,-0.716 2.583,-1.496 3.299,-2.34c0.716,-0.844 1.24,-1.969 1.573,-3.376c0.204,-0.972 0.473,-1.643 0.805,-2.014c0.333,-0.371 0.806,-0.556 1.42,-0.556c0.818,0 1.381,0.32 1.688,0.959c0.179,0.332 0.268,1.087 0.268,2.263l0,14.616c0,1.202 -0.134,2.033 -0.402,2.494c-0.269,0.46 -0.761,0.69 -1.477,0.69c-0.589,0 -1.049,-0.179 -1.381,-0.537c-0.333,-0.358 -0.601,-0.959 -0.806,-1.803c-0.435,-1.764 -1.055,-3.12 -1.861,-4.066c-0.805,-0.946 -1.847,-1.573 -3.126,-1.88Zm0.23,24.437l0,-4.143c1.662,-0.256 3.037,-0.614 4.124,-1.075c1.087,-0.46 2.18,-1.163 3.28,-2.109c1.1,-0.947 1.976,-1.925 2.628,-2.935c0.652,-1.01 1.272,-2.347 1.86,-4.009c0.282,-0.818 0.576,-1.375 0.883,-1.669c0.307,-0.294 0.729,-0.441 1.266,-0.441c0.716,0 1.214,0.211 1.496,0.633c0.281,0.422 0.422,1.157 0.422,2.206l0,13.542l-15.959,0Z" style="fill-rule:nonzero;"/><path d="M427.987,51.216l15.46,0l10.665,45.075c0.204,0.793 0.434,1.496 0.69,2.11c0.23,0.486 0.742,0.882 1.535,1.189c0.665,0.281 1.125,0.563 1.381,0.844c0.255,0.281 0.383,0.665 0.383,1.151c0,1.33 -0.997,1.995 -2.992,1.995l-19.143,0c-0.767,0 -1.381,-0.186 -1.841,-0.557c-0.46,-0.37 -0.69,-0.863 -0.69,-1.477c0,-0.511 0.102,-0.895 0.306,-1.15c0.205,-0.256 0.665,-0.576 1.381,-0.959c0.512,-0.256 0.87,-0.537 1.075,-0.844c0.204,-0.307 0.307,-0.691 0.307,-1.151c0,-0.435 -0.039,-0.819 -0.116,-1.151l-1.227,-5.563l-10.703,0l1.036,-4.565l8.593,0l-7.059,-31.188l0.959,-3.759Zm-2.647,9.743l1.957,7.941l-6.79,24.782c-0.205,0.716 -0.307,1.381 -0.307,1.995c0,1.611 0.754,2.762 2.263,3.453l1.343,0.613c0.844,0.384 1.266,1.023 1.266,1.919c0,1.278 -0.934,1.918 -2.801,1.918l-9.744,0c-0.946,0 -1.694,-0.199 -2.244,-0.595c-0.55,-0.396 -0.825,-0.94 -0.825,-1.63c0,-0.742 0.563,-1.356 1.688,-1.842c1.049,-0.46 1.822,-0.876 2.321,-1.246c0.499,-0.371 0.978,-0.876 1.439,-1.516c0.716,-1.048 1.304,-2.442 1.764,-4.181l8.67,-31.611Z" style="fill-rule:nonzero;"/><path d="M482.193,51.216l0,45.075c0,0.997 0.191,1.713 0.575,2.148c0.205,0.256 0.397,0.416 0.576,0.48c0.179,0.064 0.767,0.223 1.764,0.479c1.228,0.282 1.842,0.985 1.842,2.11c0,0.665 -0.333,1.202 -0.998,1.611c-0.486,0.307 -1.291,0.461 -2.417,0.461l-1.304,0l-17.109,0l-0.998,0c-0.921,0 -1.63,-0.173 -2.129,-0.518c-0.499,-0.345 -0.748,-0.838 -0.748,-1.477c0,-1.049 0.512,-1.739 1.534,-2.072c0.844,-0.281 1.337,-0.454 1.477,-0.518c0.141,-0.064 0.288,-0.211 0.442,-0.441c0.306,-0.409 0.46,-1.061 0.46,-1.956l0,-38.401c0,-0.895 -0.154,-1.547 -0.46,-1.956c-0.154,-0.23 -0.301,-0.377 -0.442,-0.441c-0.14,-0.064 -0.633,-0.237 -1.477,-0.518c-1.022,-0.333 -1.534,-1.023 -1.534,-2.072c0,-0.639 0.249,-1.131 0.748,-1.477c0.499,-0.345 1.208,-0.517 2.129,-0.517l18.069,0Zm11.777,26.699c2.353,0.359 4.162,0.755 5.428,1.19c1.266,0.434 2.41,1.023 3.433,1.764c1.075,0.793 1.899,1.739 2.475,2.839c0.575,1.1 0.863,2.264 0.863,3.491l0,7.941c0,0.818 0.268,1.228 0.806,1.228c0.204,0 0.377,-0.058 0.517,-0.173c0.141,-0.115 0.339,-0.339 0.595,-0.671c0.639,-0.87 1.292,-1.305 1.956,-1.305c0.435,0 0.87,0.231 1.305,0.691c0.435,0.46 0.652,0.921 0.652,1.381c0,0.793 -0.377,1.758 -1.132,2.896c-0.754,1.138 -1.694,2.155 -2.819,3.05c-1.049,0.844 -2.187,1.451 -3.415,1.822c-1.227,0.371 -2.672,0.556 -4.334,0.556c-3.376,0 -6.011,-0.965 -7.903,-2.896c-1.893,-1.931 -2.839,-4.623 -2.839,-8.075l0,-6.445c0,-1.432 -0.013,-2.263 -0.038,-2.493c-0.128,-1.023 -0.486,-1.906 -1.074,-2.647c-0.742,-0.896 -1.803,-1.42 -3.184,-1.573l0,-4.105c1.381,-0.205 2.365,-0.563 2.954,-1.074c0.511,-0.46 0.863,-0.985 1.054,-1.573c0.192,-0.588 0.288,-1.458 0.288,-2.609l0,-10.166c0,-1.611 -0.313,-2.813 -0.94,-3.606c-0.626,-0.792 -1.758,-1.419 -3.395,-1.879l0,-4.258l0.998,0c2.838,0 5.255,0.102 7.25,0.306c2.967,0.282 5.614,1.254 7.941,2.916c3.35,2.378 5.025,5.767 5.025,10.166c0,3.606 -1.125,6.56 -3.375,8.862c-0.947,0.971 -2.053,1.764 -3.319,2.378c-1.266,0.614 -3.19,1.304 -5.773,2.071Z" style="fill-rule:nonzero;"/></g><path d="M147.108,144.797l0,-23.744l-7.121,0l-5.766,14.845l-5.766,-14.845l-7.086,0l0,23.744l5.052,0l0,-17.123l6.697,17.123l2.207,0l6.696,-17.123l0,17.123l5.087,0Z" style="fill-rule:nonzero;"/><path d="M159.68,145.225c5.698,0 9.113,-4.162 9.113,-9.042c0,-4.88 -3.415,-9.006 -9.113,-9.006c-5.663,0 -9.078,4.126 -9.078,9.006c0,4.88 3.415,9.042 9.078,9.042Zm0,-4.019c-2.815,0 -4.382,-2.316 -4.382,-5.023c0,-2.672 1.567,-4.987 4.382,-4.987c2.849,0 4.417,2.315 4.417,4.987c0,2.707 -1.568,5.023 -4.417,5.023Z" style="fill-rule:nonzero;"/><path d="M188.554,144.797l0,-23.744l-4.553,0l0,8.756c-1.354,-1.779 -3.278,-2.632 -5.308,-2.632c-4.38,0 -7.617,3.414 -7.617,9.004c0,5.772 3.308,9.044 7.617,9.044c2.102,0 3.954,-0.925 5.308,-2.632l0,2.204l4.553,0Zm-8.436,-3.591c-2.601,0 -4.382,-2.031 -4.382,-5.023c0,-2.957 1.781,-4.987 4.382,-4.987c1.496,0 3.135,0.819 3.883,1.959l0,6.091c-0.748,1.14 -2.387,1.96 -3.883,1.96Z" style="fill-rule:nonzero;"/><path d="M201.125,145.225c2.672,0 5.378,-0.818 7.085,-2.383l-2.028,-2.991c-1.102,1.069 -3.097,1.675 -4.558,1.675c-2.921,0 -4.631,-1.747 -4.952,-3.85l12.783,0l0,-1.066c0,-5.592 -3.45,-9.433 -8.615,-9.433c-5.199,0 -8.899,4.019 -8.899,9.006c0,5.521 3.949,9.042 9.184,9.042Zm3.99,-10.678l-8.478,0c0.178,-1.711 1.389,-3.672 4.203,-3.672c2.993,0 4.133,2.032 4.275,3.672Z" style="fill-rule:nonzero;"/><path d="M217.253,144.797l0,-11.358c0.747,-1.104 2.741,-1.958 4.237,-1.958c0.534,0 0.926,0.035 1.246,0.107l0,-4.411c-2.136,0 -4.237,1.245 -5.483,2.739l0,-2.312l-4.518,0l0,17.193l4.518,0Z" style="fill-rule:nonzero;"/><path d="M241.714,144.797l0,-12.141c0,-3.345 -1.814,-5.479 -5.622,-5.479c-2.779,0 -4.917,1.351 -6.021,2.632l0,-2.205l-4.518,0l0,17.193l4.518,0l0,-11.604c0.784,-1 2.138,-1.997 3.919,-1.997c1.924,0 3.171,0.819 3.171,3.204l0,10.397l4.553,0Z" style="fill-rule:nonzero;"/><path d="M270.199,144.797l0,-11.105c0,-4.95 -3.593,-6.515 -7.546,-6.515c-2.708,0 -5.413,0.818 -7.512,2.703l1.779,3.17c1.423,-1.319 3.132,-2.032 4.949,-2.032c2.281,0 3.777,1.141 3.777,2.888l0,2.169c-1.14,-1.351 -3.135,-2.097 -5.451,-2.097c-2.742,0 -5.943,1.493 -5.943,5.55c0,3.848 3.201,5.697 5.943,5.697c2.244,0 4.275,-0.818 5.451,-2.24l0,1.812l4.553,0Zm-8.187,-2.63c-1.782,0 -3.242,-0.927 -3.242,-2.566c0,-1.639 1.46,-2.601 3.242,-2.601c1.461,0 2.886,0.534 3.634,1.532l0,2.138c-0.748,0.998 -2.173,1.497 -3.634,1.497Z" style="fill-rule:nonzero;"/><path d="M290.815,144.797l0,-12.141c0,-3.345 -1.814,-5.479 -5.622,-5.479c-2.779,0 -4.917,1.351 -6.021,2.632l0,-2.205l-4.518,0l0,17.193l4.518,0l0,-11.604c0.784,-1 2.138,-1.997 3.919,-1.997c1.924,0 3.171,0.819 3.171,3.204l0,10.397l4.553,0Z" style="fill-rule:nonzero;"/><path d="M311.645,144.797l0,-23.744l-4.553,0l0,8.756c-1.354,-1.779 -3.278,-2.632 -5.309,-2.632c-4.379,0 -7.616,3.414 -7.616,9.004c0,5.772 3.308,9.044 7.616,9.044c2.102,0 3.955,-0.925 5.309,-2.632l0,2.204l4.553,0Zm-8.437,-3.591c-2.6,0 -4.381,-2.031 -4.381,-5.023c0,-2.957 1.781,-4.987 4.381,-4.987c1.497,0 3.135,0.819 3.884,1.959l0,6.091c-0.749,1.14 -2.387,1.96 -3.884,1.96Z" style="fill-rule:nonzero;"/><path d="M341.412,144.797l0,-17.193l-4.518,0l0,11.64c-0.784,1 -2.173,1.962 -3.919,1.962c-1.924,0 -3.171,-0.784 -3.171,-3.169l0,-10.433l-4.518,0l0,12.213c0,3.345 1.779,5.408 5.551,5.408c2.815,0 4.881,-1.316 6.057,-2.597l0,2.169l4.518,0Z" style="fill-rule:nonzero;"/><path d="M350.42,144.797l0,-11.358c0.748,-1.104 2.742,-1.958 4.237,-1.958c0.534,0 0.926,0.035 1.246,0.107l0,-4.411c-2.136,0 -4.237,1.245 -5.483,2.739l0,-2.312l-4.518,0l0,17.193l4.518,0Z" style="fill-rule:nonzero;"/><path d="M363.238,139.282l0,-6.091c0.784,-1.14 2.423,-1.995 3.919,-1.995c2.601,0 4.346,2.03 4.346,4.987c0,2.992 -1.745,5.023 -4.346,5.023c-1.496,0 -3.135,-0.82 -3.919,-1.924Zm0,5.515l0,-2.207c1.354,1.71 3.242,2.635 5.308,2.635c4.345,0 7.617,-3.272 7.617,-9.042c0,-5.592 -3.237,-9.006 -7.617,-9.006c-2.03,0 -3.954,0.853 -5.308,2.632l0,-8.756l-4.517,0l0,23.744l4.517,0Z" style="fill-rule:nonzero;"/><path d="M394.465,144.797l0,-11.105c0,-4.95 -3.593,-6.515 -7.546,-6.515c-2.708,0 -5.413,0.818 -7.512,2.703l1.779,3.17c1.422,-1.319 3.132,-2.032 4.949,-2.032c2.28,0 3.777,1.141 3.777,2.888l0,2.169c-1.14,-1.351 -3.136,-2.097 -5.452,-2.097c-2.741,0 -5.942,1.493 -5.942,5.55c0,3.848 3.201,5.697 5.942,5.697c2.245,0 4.276,-0.818 5.452,-2.24l0,1.812l4.553,0Zm-8.187,-2.63c-1.782,0 -3.243,-0.927 -3.243,-2.566c0,-1.639 1.461,-2.601 3.243,-2.601c1.46,0 2.885,0.534 3.634,1.532l0,2.138c-0.749,0.998 -2.174,1.497 -3.634,1.497Z" style="fill-rule:nonzero;"/><path d="M415.081,144.797l0,-12.141c0,-3.345 -1.814,-5.479 -5.622,-5.479c-2.779,0 -4.917,1.351 -6.021,2.632l0,-2.205l-4.518,0l0,17.193l4.518,0l0,-11.604c0.783,-1 2.137,-1.997 3.919,-1.997c1.924,0 3.171,0.819 3.171,3.204l0,10.397l4.553,0Z" style="fill-rule:nonzero;"/><path d="M436.66,145.225c5.699,0 9.113,-4.162 9.113,-9.042c0,-4.88 -3.414,-9.006 -9.113,-9.006c-5.662,0 -9.077,4.126 -9.077,9.006c0,4.88 3.415,9.042 9.077,9.042Zm0,-4.019c-2.814,0 -4.381,-2.316 -4.381,-5.023c0,-2.672 1.567,-4.987 4.381,-4.987c2.85,0 4.418,2.315 4.418,4.987c0,2.707 -1.568,5.023 -4.418,5.023Z" style="fill-rule:nonzero;"/><path d="M465.286,144.797l0,-17.193l-4.518,0l0,11.64c-0.784,1 -2.173,1.962 -3.919,1.962c-1.924,0 -3.171,-0.784 -3.171,-3.169l0,-10.433l-4.517,0l0,12.213c0,3.345 1.778,5.408 5.55,5.408c2.815,0 4.881,-1.316 6.057,-2.597l0,2.169l4.518,0Z" style="fill-rule:nonzero;"/><path d="M475.54,145.225c1.887,0 3.098,-0.498 3.775,-1.103l-0.962,-3.451c-0.249,0.285 -0.89,0.535 -1.566,0.535c-0.997,0 -1.567,-0.82 -1.567,-1.924l0,-7.73l3.489,0l0,-3.948l-3.489,0l0,-4.7l-4.518,0l0,4.7l-2.848,0l0,3.948l2.848,0l0,8.941c0,3.096 1.672,4.732 4.838,4.732Z" style="fill-rule:nonzero;"/><path d="M487.362,144.797l0,-13.245l3.489,0l0,-3.948l-3.489,0l0,-0.713c0,-1.676 0.854,-2.496 2.136,-2.496c0.605,0 1.104,0.107 1.46,0.357l0.926,-3.344c-0.819,-0.427 -1.959,-0.712 -3.276,-0.712c-3.31,0 -5.764,2.17 -5.764,6.195l0,0.713l-2.848,0l0,3.948l2.848,0l0,13.245l4.518,0Zm8.334,-19.049c1.494,0 2.703,-1.209 2.703,-2.704c0,-1.494 -1.209,-2.668 -2.703,-2.668c-1.459,0 -2.669,1.174 -2.669,2.668c0,1.495 1.21,2.704 2.669,2.704Zm2.276,19.049l0,-17.193l-4.517,0l0,17.193l4.517,0Z" style="fill-rule:nonzero;"/><path d="M508.227,145.225c1.887,0 3.098,-0.498 3.774,-1.103l-0.961,-3.451c-0.25,0.285 -0.89,0.535 -1.567,0.535c-0.997,0 -1.567,-0.82 -1.567,-1.924l0,-7.73l3.49,0l0,-3.948l-3.49,0l0,-4.7l-4.517,0l0,4.7l-2.849,0l0,3.948l2.849,0l0,8.941c0,3.096 1.672,4.732 4.838,4.732Z" style="fill-rule:nonzero;"/></g><g><path id="sports-shoe2" d="M40.212,57.549c-0.507,0.434 -1.01,0.877 -1.505,1.325l4.131,7.664l-3.345,2.625l-3.964,-7.356c-0.562,0.53 -1.117,1.051 -1.664,1.556l3.788,7.023l-3.345,2.626l-3.672,-6.812c-0.607,0.492 -1.198,0.94 -1.785,1.34l3.613,6.7l-3.345,2.625l-4.064,-7.538c-0.371,0.077 -0.738,0.115 -1.097,0.115l-3.992,0l0,2.409c0,0.862 0.204,2.326 0.786,3.738c0.922,2.22 2.491,3.487 5.201,3.487l21.954,0c2.531,0 4.327,1.445 5.277,3.738c0.368,0.886 0.563,1.744 0.651,2.5c7.832,-1.561 18.022,-1.252 18.022,-1.252l27.95,0c-0.136,-6.802 -0.595,-15.973 -1.952,-23.059l-0.639,0.506c-0.363,0.438 -1.03,1.161 -1.984,2.071c-1.561,1.489 -3.381,2.972 -5.444,4.355c-5.892,3.949 -12.582,6.324 -19.931,6.324c-11.579,0 -19.128,-7.591 -23.307,-17.134c-0.171,-0.39 -0.499,-1.469 -1.093,-3.53c-0.647,0.409 -1.282,0.843 -1.908,1.295l4.007,7.433l-3.345,2.625l-3.995,-7.408l-0.004,0.009Zm-24.246,11.898l-3.971,0c-6.626,0 -11.995,6.503 -11.995,14.494c0,1.648 0.172,3.247 0.499,4.774l35.426,0c4.542,0 9.065,-1.18 13.97,-2.447c-0.008,-0.275 -0.088,-0.809 -0.287,-1.296c-0.296,-0.718 -0.747,-1.079 -1.709,-1.079l-21.954,0c-4.275,0 -7.196,-2.351 -8.769,-6.146c-0.91,-2.202 -1.21,-4.35 -1.21,-5.896l0,-2.409l0,0.005Zm-13.835,24.085c2.767,5.756 7.94,9.633 13.847,9.633l75.817,0c4.419,0 8.039,-4.335 8.02,-9.595c0,0 0.047,-1.878 0.039,-4.855l-28.001,0c0,0 -11.975,0 -18.748,1.657c-5.984,1.464 -11.552,3.16 -17.176,3.16l-33.794,0l-0.004,0Zm46.986,-41.879c2.147,-0.92 4.399,-1.474 6.766,-1.474c5.987,0 3.991,9.495 15.966,9.495c11.975,0 10.861,-9.495 19.958,-9.495c2.132,0 3.705,2.385 4.862,6.036l-1.98,1.594c-0.563,0.612 -1.113,1.209 -1.94,1.995c-1.401,1.334 -3.041,2.673 -4.909,3.925c-5.333,3.575 -11.369,5.718 -17.991,5.718c-9.815,0 -16.218,-6.44 -19.778,-14.566c-0.036,-0.082 -0.451,-1.465 -0.958,-3.228l0.004,0Z" style="fill-rule:nonzero;"/><path id="sunglasses" d="M56.606,128.646l36.612,0c0.1,0.989 0.027,1.975 -0.076,2.786l-36.162,0c-0.287,-0.872 -0.491,-1.853 -0.374,-2.786Zm1.998,-2.787c0.394,-0.212 0.857,-0.398 1.398,-0.552c5.971,-1.682 12.118,-2.137 15.474,-2.215c3.356,-0.078 12.892,-0.036 15.484,1.524c0.561,0.338 0.994,0.764 1.324,1.24l-33.68,0l0,0.003Zm-17.079,8.359c-0.343,0.797 -0.924,1.803 -1.647,2.787l-31.783,0c-0.36,-0.836 -0.677,-1.839 -0.907,-2.787l34.337,0Zm1.178,-2.786l-36.019,0c-0.103,-0.811 -0.176,-1.797 -0.07,-2.786l36.446,0c0.13,0.93 -0.07,1.914 -0.36,2.786l0.003,0Zm-5.521,8.359c-0.166,0.12 -0.336,0.231 -0.507,0.332c-2.201,1.295 -7.035,2.326 -13.109,2.326c-3.529,0 -6.391,-0.139 -9.21,-0.669c-2.014,-0.379 -3.309,-0.727 -4.486,-1.989l27.312,0Zm3.73,-13.932l-33.31,0c0.32,-0.437 0.734,-0.825 1.257,-1.137c2.582,-1.541 12.075,-1.58 15.418,-1.504c3.342,0.075 9.463,0.524 15.407,2.184c0.464,0.128 0.871,0.284 1.224,0.457l0.004,0Zm50.839,11.146l-31.983,0c-0.714,-0.987 -1.284,-1.993 -1.621,-2.787l34.498,0c-0.227,0.945 -0.537,1.945 -0.894,2.787Zm-1.722,2.786c-1.207,1.354 -2.518,1.716 -4.589,2.109c-2.832,0.538 -5.708,0.677 -9.25,0.677c-6.101,0 -10.955,-1.045 -13.163,-2.357c-0.213,-0.125 -0.423,-0.27 -0.634,-0.429l27.636,0Zm-43.267,-16.696c-14.566,-3.355 -35.107,-3.196 -45.675,-1.711c-1.277,0.179 -1.478,5.08 -0.34,5.25c2.088,0.705 2.979,2.466 2.979,2.466c0,0 0.623,1.563 2.435,7.916c1.811,6.353 6.127,7.116 6.127,7.116c0,0 5.284,1.092 11.382,1.092c6.094,0 9.743,-0.231 13.646,-1.861c3.903,-1.63 5.61,-6.175 5.61,-6.175c0,0 1.968,-3.914 3.323,-7.606c0.423,-1.159 6.888,-1.159 7.312,0c1.354,3.694 3.322,7.606 3.322,7.606c0,0 1.708,4.542 5.61,6.175c3.903,1.63 7.552,1.861 13.647,1.861c6.094,0 11.381,-1.092 11.381,-1.092c0,0 4.316,-0.761 6.128,-7.116c1.811,-6.356 2.435,-7.916 2.435,-7.916c0,0 0.89,-1.761 2.978,-2.466c1.135,-0.173 0.934,-5.071 -0.34,-5.25c-10.567,-1.488 -31.105,-1.644 -45.675,1.711c-0.987,0.19 -5.291,0.19 -6.278,0l-0.007,0Z" style="fill:#4d4d4d;fill-rule:nonzero;"/></g></g></g></svg>