<?xml version="1.0" encoding="UTF-8" standalone="no"?><!DOCTYPE svg PUBLIC "-//W3C//DTD SVG 1.1//EN" "http://www.w3.org/Graphics/SVG/1.1/DTD/svg11.dtd"><svg width="100%" height="100%" viewBox="0 0 512 200" version="1.1" xmlns="http://www.w3.org/2000/svg" xmlns:xlink="http://www.w3.org/1999/xlink" xml:space="preserve" xmlns:serif="http://www.serif.com/" style="fill-rule:evenodd;clip-rule:evenodd;stroke-linejoin:round;stroke-miterlimit:2;"><g id="Logo-4" serif:id="Logo 4"><rect x="0" y="0" width="512" height="200" style="fill:none;"/><g><path d="M217.372,70.617c-2.076,0.084 -3.583,0.309 -4.523,0.673c-0.939,0.365 -1.584,1.038 -1.935,2.019c-0.35,0.982 -0.525,2.552 -0.525,4.712l0,42.739c0,2.159 0.175,3.729 0.525,4.711c0.351,0.982 0.996,1.655 1.935,2.019c0.94,0.365 2.447,0.589 4.523,0.673l0,1.725c-2.693,-0.168 -6.338,-0.252 -10.938,-0.252c-4.935,0 -8.609,0.084 -11.021,0.252l0,-1.725c2.075,-0.084 3.576,-0.308 4.501,-0.673c0.926,-0.364 1.564,-1.037 1.914,-2.019c0.351,-0.982 0.526,-2.552 0.526,-4.711l0,-46.105l-20.738,55.654l-1.389,0l-21.706,-55.906l0,45.473c0,2.216 0.197,3.884 0.589,5.006c0.393,1.122 1.129,1.928 2.209,2.419c1.079,0.491 2.755,0.778 5.027,0.862l0,1.725c-2.048,-0.168 -4.978,-0.252 -8.792,-0.252c-3.422,0 -6.086,0.084 -7.993,0.252l0,-1.725c1.991,-0.084 3.471,-0.371 4.438,-0.862c0.968,-0.491 1.634,-1.297 1.998,-2.419c0.365,-1.122 0.547,-2.79 0.547,-5.006l0,-41.855c0,-2.16 -0.175,-3.73 -0.526,-4.712c-0.35,-0.981 -0.995,-1.654 -1.935,-2.019c-0.939,-0.364 -2.446,-0.589 -4.522,-0.673l0,-1.725c1.879,0.169 4.543,0.253 7.993,0.253c3.029,0 5.482,-0.084 7.361,-0.253l18.93,49.975l18.509,-49.722l4.08,0c4.6,0 8.245,-0.084 10.938,-0.253l0,1.725Z" style="fill:#4d4d4d;fill-rule:nonzero;"/><path d="M268.397,122.653c1.571,3.561 3.562,5.398 5.974,5.51l0,1.725c-2.356,-0.168 -5.427,-0.252 -9.213,-0.252c-4.935,0 -8.623,0.084 -11.063,0.252l0,-1.725c2.159,-0.084 3.73,-0.35 4.711,-0.799c0.982,-0.449 1.473,-1.234 1.473,-2.356c0,-1.037 -0.393,-2.397 -1.178,-4.08l-4.333,-9.801l-21.033,0l-2.902,6.436c-0.954,2.215 -1.431,4.052 -1.431,5.51c0,3.029 2.23,4.726 6.689,5.09l0,1.725c-1.711,-0.168 -4.319,-0.252 -7.824,-0.252c-3.506,0 -6.002,0.084 -7.488,0.252l0,-1.725c1.514,-0.392 2.832,-1.269 3.954,-2.629c1.122,-1.36 2.159,-3.148 3.113,-5.363l19.014,-43.076l1.388,0l20.149,45.558Zm-24.103,-35.167l-9.802,21.916l19.519,0l-9.717,-21.916Z" style="fill:#4d4d4d;fill-rule:nonzero;"/><path d="M328.51,126.27c-1.094,1.571 -2.335,2.77 -3.723,3.597c-1.388,0.827 -3.078,1.241 -5.069,1.241c-4.768,0 -7.726,-2.188 -8.876,-6.562l-2.65,-10.769c-0.533,-2.188 -1.255,-3.863 -2.167,-5.027c-0.911,-1.164 -2.026,-1.963 -3.344,-2.398c-1.318,-0.435 -3.015,-0.652 -5.09,-0.652l-4.922,0l0,15.06c0,2.159 0.176,3.729 0.526,4.711c0.351,0.982 0.996,1.655 1.935,2.019c0.94,0.365 2.447,0.589 4.522,0.673l0,1.725c-2.664,-0.168 -6.31,-0.252 -10.937,-0.252c-4.964,0 -8.637,0.084 -11.021,0.252l0,-1.725c2.075,-0.084 3.583,-0.308 4.522,-0.673c0.94,-0.364 1.585,-1.037 1.935,-2.019c0.351,-0.982 0.526,-2.552 0.526,-4.711l0,-34.116c0,-2.187 -0.175,-3.772 -0.526,-4.753c-0.35,-0.982 -0.988,-1.648 -1.914,-1.998c-0.925,-0.351 -2.44,-0.568 -4.543,-0.652l0,-1.725c2.384,0.168 5.889,0.252 10.516,0.252c0.982,0 3.913,-0.042 8.792,-0.126l3.365,-0.042c4.291,0 7.93,0.561 10.917,1.683c2.986,1.121 5.23,2.657 6.73,4.606c1.5,1.949 2.251,4.185 2.251,6.709c0,2.104 -0.533,4.144 -1.599,6.121c-1.066,1.977 -2.881,3.73 -5.447,5.258c-2.566,1.529 -5.939,2.545 -10.117,3.05c0.981,0.028 1.963,0.126 2.944,0.294c3.057,0.477 5.476,1.403 7.257,2.777c1.78,1.374 3.035,3.589 3.765,6.646l1.893,7.824c0.476,2.02 0.981,3.443 1.514,4.27c0.533,0.827 1.234,1.241 2.103,1.241c1.43,0 3.015,-0.981 4.754,-2.945l1.178,1.136Zm-30.33,-47.029c-1.542,0 -2.699,0.203 -3.47,0.61c-0.772,0.406 -1.304,1.128 -1.599,2.166c-0.294,1.038 -0.442,2.58 -0.442,4.627l0,17.331l5.805,0c3.45,0 6.142,-0.525 8.077,-1.577c1.935,-1.052 3.267,-2.482 3.996,-4.291c0.73,-1.809 1.094,-3.989 1.094,-6.541c0,-4.151 -1.045,-7.242 -3.134,-9.276c-2.089,-2.033 -5.531,-3.049 -10.327,-3.049Z" style="fill:#4d4d4d;fill-rule:nonzero;"/><path d="M353.413,79.241c-2.076,0.084 -3.583,0.308 -4.523,0.673c-0.939,0.364 -1.584,1.037 -1.935,2.019c-0.35,0.981 -0.525,2.552 -0.525,4.711l0,34.116c0,2.159 0.175,3.729 0.525,4.711c0.351,0.982 0.996,1.655 1.935,2.019c0.94,0.365 2.447,0.589 4.523,0.673l0,1.725c-2.637,-0.168 -6.282,-0.252 -10.938,-0.252c-4.935,0 -8.609,0.084 -11.021,0.252l0,-1.725c2.075,-0.084 3.583,-0.308 4.522,-0.673c0.94,-0.364 1.585,-1.037 1.935,-2.019c0.351,-0.982 0.526,-2.552 0.526,-4.711l0,-34.116c0,-2.159 -0.175,-3.73 -0.526,-4.711c-0.35,-0.982 -0.995,-1.655 -1.935,-2.019c-0.939,-0.365 -2.447,-0.589 -4.522,-0.673l0,-1.725c2.384,0.168 6.058,0.252 11.021,0.252c4.656,0 8.301,-0.084 10.938,-0.252l0,1.725Z" style="fill:#4d4d4d;fill-rule:nonzero;"/><path d="M408.477,77.516c-0.421,3.674 -0.631,7.053 -0.631,10.138c0,2.972 0.084,5.328 0.252,7.067l-1.977,0c-0.337,-4.01 -0.876,-7.074 -1.62,-9.192c-0.743,-2.117 -1.949,-3.652 -3.617,-4.606c-1.669,-0.953 -4.06,-1.43 -7.172,-1.43l-5.511,0l0,40.383c0,2.384 0.224,4.13 0.673,5.237c0.449,1.108 1.262,1.872 2.44,2.293c1.178,0.421 3.043,0.673 5.595,0.757l0,1.725c-2.973,-0.168 -7.194,-0.252 -12.662,-0.252c-5.721,0 -9.97,0.084 -12.746,0.252l0,-1.725c2.552,-0.084 4.417,-0.336 5.595,-0.757c1.177,-0.421 1.991,-1.185 2.439,-2.293c0.449,-1.107 0.673,-2.853 0.673,-5.237l0,-40.383l-5.51,0c-3.113,0 -5.497,0.477 -7.151,1.43c-1.655,0.954 -2.861,2.496 -3.618,4.627c-0.757,2.132 -1.304,5.189 -1.641,9.171l-1.977,0c0.169,-1.823 0.253,-4.179 0.253,-7.067c0,-3.001 -0.197,-6.38 -0.589,-10.138c4.767,0.168 12.858,0.252 24.272,0.252c11.386,0 19.462,-0.084 24.23,-0.252Z" style="fill:#4d4d4d;fill-rule:nonzero;"/><path d="M436.955,79.241c-2.075,0.084 -3.582,0.308 -4.522,0.673c-0.939,0.364 -1.584,1.037 -1.935,2.019c-0.35,0.981 -0.526,2.552 -0.526,4.711l0,34.116c0,2.159 0.176,3.729 0.526,4.711c0.351,0.982 0.996,1.655 1.935,2.019c0.94,0.365 2.447,0.589 4.522,0.673l0,1.725c-2.636,-0.168 -6.282,-0.252 -10.937,-0.252c-4.936,0 -8.609,0.084 -11.021,0.252l0,-1.725c2.075,-0.084 3.583,-0.308 4.522,-0.673c0.939,-0.364 1.584,-1.037 1.935,-2.019c0.351,-0.982 0.526,-2.552 0.526,-4.711l0,-34.116c0,-2.159 -0.175,-3.73 -0.526,-4.711c-0.351,-0.982 -0.996,-1.655 -1.935,-2.019c-0.939,-0.365 -2.447,-0.589 -4.522,-0.673l0,-1.725c2.384,0.168 6.057,0.252 11.021,0.252c4.655,0 8.301,-0.084 10.937,-0.252l0,1.725Z" style="fill:#4d4d4d;fill-rule:nonzero;"/><path d="M512.001,70.617c-2.075,0.084 -3.583,0.309 -4.522,0.673c-0.94,0.365 -1.585,1.038 -1.935,2.019c-0.351,0.982 -0.526,2.552 -0.526,4.712l0,42.739c0,2.159 0.175,3.729 0.526,4.711c0.35,0.982 0.995,1.655 1.935,2.019c0.939,0.365 2.447,0.589 4.522,0.673l0,1.725c-2.692,-0.168 -6.338,-0.252 -10.937,-0.252c-4.936,0 -8.61,0.084 -11.022,0.252l0,-1.725c2.076,-0.084 3.576,-0.308 4.501,-0.673c0.926,-0.364 1.564,-1.037 1.914,-2.019c0.351,-0.982 0.526,-2.552 0.526,-4.711l0,-46.105l-20.738,55.654l-1.388,0l-21.706,-55.906l0,45.473c0,2.216 0.196,3.884 0.589,5.006c0.392,1.122 1.128,1.928 2.208,2.419c1.08,0.491 2.755,0.778 5.027,0.862l0,1.725c-2.047,-0.168 -4.978,-0.252 -8.792,-0.252c-3.421,0 -6.085,0.084 -7.992,0.252l0,-1.725c1.991,-0.084 3.47,-0.371 4.438,-0.862c0.967,-0.491 1.633,-1.297 1.998,-2.419c0.364,-1.122 0.547,-2.79 0.547,-5.006l0,-41.855c0,-2.16 -0.176,-3.73 -0.526,-4.712c-0.351,-0.981 -0.996,-1.654 -1.935,-2.019c-0.94,-0.364 -2.447,-0.589 -4.522,-0.673l0,-1.725c1.879,0.169 4.543,0.253 7.992,0.253c3.029,0 5.483,-0.084 7.362,-0.253l18.929,49.975l18.509,-49.722l4.081,0c4.599,0 8.245,-0.084 10.937,-0.253l0,1.725Z" style="fill:#4d4d4d;fill-rule:nonzero;"/><path id="sailing-boat-water2" d="M91.217,131.661l1.608,0c10.792,0 19.537,-8.769 19.537,-19.541l-48.855,0l0,-73.283l-4.886,0l0,73.283l-48.854,0c0,4.279 1.377,8.236 3.708,11.456c17.886,-8.657 37.061,-9.649 56.114,1.07c7.402,4.162 14.623,6.41 21.623,7.015l0.005,0Zm21.15,-24.427l-43.97,0l0,-43.969l43.97,43.969Zm-87.939,-41.526c-14.656,24.427 -14.656,41.526 -14.656,41.526l43.969,0c0,0 -4.886,-7.328 -4.886,-29.313c0,-21.984 4.886,-39.084 4.886,-39.084c0,0 -14.657,2.443 -29.313,26.871Zm-24.427,75.724c2.11,-1.558 4.402,-3.097 6.864,-4.563c19.698,-11.754 41.238,-14.485 62.632,-2.452c19.644,11.051 38.038,8.603 54.326,-2.208c3.044,-2.023 5.75,-4.187 8.085,-6.347l0,6.459c-1.666,1.353 -3.463,2.682 -5.383,3.957c-17.696,11.75 -38,14.446 -59.427,2.399c-19.65,-11.051 -39.402,-8.55 -57.732,2.389c-3.483,2.076 -6.61,4.304 -9.336,6.527c-0.01,0.01 -0.02,0.015 -0.029,0.024l0,-6.185Zm14.554,6.019c17.548,-8.134 36.299,-8.857 54.937,1.627c17.006,9.566 33.079,9.019 47.657,1.681l0,5.418c-15.355,7.001 -32.322,7.132 -50.051,-2.839c-17.808,-10.015 -35.698,-8.901 -52.543,-0.459l0,-5.423l0,-0.005Z" style="fill:#4d4d4d;fill-rule:nonzero;"/></g></g></svg>