<?xml version="1.0" encoding="UTF-8" standalone="no"?>
<!DOCTYPE svg PUBLIC "-//W3C//DTD SVG 1.1//EN" "http://www.w3.org/Graphics/SVG/1.1/DTD/svg11.dtd">
<svg width="100%" height="100%" viewBox="0 0 800 800" version="1.1" xmlns="http://www.w3.org/2000/svg" xmlns:xlink="http://www.w3.org/1999/xlink" xml:space="preserve" xmlns:serif="http://www.serif.com/" style="fill-rule:evenodd;clip-rule:evenodd;stroke-linejoin:round;stroke-miterlimit:1.41421;">
    <g id="traffic-cone" transform="matrix(41.6672,0,0,41.6672,-16.6749,-16.6355)">
        <path d="M10,12.078C12.39,12.078 14.392,11.266 14.513,10.205C14.157,9.209 13.769,8.121 13.388,7.053C13.124,7.814 11.663,8.354 10,8.354C8.337,8.354 6.876,7.814 6.612,7.053C6.231,8.121 5.843,9.209 5.488,10.205C5.609,11.266 7.61,12.078 10,12.078ZM10,5.373C11.124,5.373 12.167,5.025 12.473,4.484C12.052,3.302 11.691,2.287 11.462,1.648C11.31,1.221 10.621,1 10,1C9.379,1 8.69,1.221 8.538,1.648C8.31,2.287 7.948,3.302 7.527,4.484C7.833,5.025 8.877,5.373 10,5.373ZM18.78,13.066L15.025,11.552L15.458,12.759C15.436,14.038 12.954,15.058 10,15.058C7.046,15.058 4.563,14.039 4.542,12.759L4.975,11.552L1.22,13.066C0.167,13.49 0.122,14.275 1.122,14.81L8.184,18.597C9.182,19.132 10.817,19.132 11.816,18.597L18.879,14.81C19.878,14.275 19.833,13.49 18.78,13.066Z" style="fill-opacity:0.25;fill-rule:nonzero;"/>
    </g>
</svg>
